<svg width="8" height="9" viewBox="0 0 8 9" fill="none" xmlns="http://www.w3.org/2000/svg">
<path fill-rule="evenodd" clip-rule="evenodd" d="M7.88284 1.04123C8.03905 1.19744 8.03905 1.45071 7.88284 1.60691L0.682843 8.80692C0.526633 8.96313 0.273367 8.96313 0.117157 8.80692C-0.0390524 8.6507 -0.0390524 8.39744 0.117157 8.24123L7.31716 1.04123C7.47337 0.88502 7.72663 0.88502 7.88284 1.04123Z" fill="white"/>
<path fill-rule="evenodd" clip-rule="evenodd" d="M0.117157 1.04123C0.273367 0.88502 0.526633 0.88502 0.682843 1.04123L7.88284 8.24123C8.03905 8.39744 8.03905 8.6507 7.88284 8.80692C7.72663 8.96313 7.47337 8.96313 7.31716 8.80692L0.117157 1.60691C-0.0390524 1.45071 -0.0390524 1.19744 0.117157 1.04123Z" fill="white"/>
</svg>
