<svg width="18" height="15" viewBox="0 0 18 15" fill="none" xmlns="http://www.w3.org/2000/svg">
<path fill-rule="evenodd" clip-rule="evenodd" d="M3.72598 5.47185C3.72598 5.09848 4.02865 4.79581 4.40201 4.79581H13.1904C13.5638 4.79581 13.8664 5.09848 13.8664 5.47185C13.8664 5.84521 13.5638 6.14788 13.1904 6.14788H4.40201C4.02865 6.14788 3.72598 5.84521 3.72598 5.47185Z" fill="white"/>
<path fill-rule="evenodd" clip-rule="evenodd" d="M3.72598 8.17597C3.72598 7.80261 4.02865 7.49994 4.40201 7.49994H13.1904C13.5638 7.49994 13.8664 7.80261 13.8664 8.17597C13.8664 8.54933 13.5638 8.852 13.1904 8.852H4.40201C4.02865 8.852 3.72598 8.54933 3.72598 8.17597Z" fill="white"/>
<path fill-rule="evenodd" clip-rule="evenodd" d="M0.403822 0.459608C0.657383 0.206048 1.00128 0.0635986 1.35987 0.0635986H16.2326C16.5911 0.0635986 16.935 0.206048 17.1886 0.459608C17.4422 0.71317 17.5846 1.05707 17.5846 1.41566V14.2602C17.5846 14.4945 17.4633 14.7121 17.264 14.8353C17.0647 14.9585 16.8158 14.9697 16.6063 14.8649L14.2045 13.664L11.8027 14.8649C11.6123 14.9601 11.3883 14.9601 11.198 14.8649L8.79621 13.664L6.39442 14.8649C6.2041 14.9601 5.98008 14.9601 5.78976 14.8649L3.38797 13.664L0.986174 14.8649C0.776612 14.9697 0.527738 14.9585 0.328433 14.8353C0.129128 14.7121 0.0078125 14.4945 0.0078125 14.2602V1.41566C0.0078125 1.05707 0.150262 0.713169 0.403822 0.459608ZM16.2326 1.41566L1.35987 1.41566L1.35987 13.1664L3.08564 12.3035C3.27596 12.2084 3.49998 12.2084 3.6903 12.3035L6.09209 13.5044L8.49388 12.3035C8.6842 12.2084 8.90822 12.2084 9.09854 12.3035L11.5003 13.5044L13.9021 12.3035C14.0925 12.2084 14.3165 12.2084 14.5068 12.3035L16.2326 13.1664V1.41566Z" fill="white"/>
</svg>
